<?xml version="1.0" standalone="no"?>
<!DOCTYPE svg PUBLIC "-//W3C//DTD SVG 20010904//EN"
 "http://www.w3.org/TR/2001/REC-SVG-20010904/DTD/svg10.dtd">
<svg version="1.0" xmlns="http://www.w3.org/2000/svg"
 width="1228.000000pt" height="1228.000000pt" viewBox="0 0 1228.000000 1228.000000"
 preserveAspectRatio="xMidYMid meet">
<metadata>
Created by potrace 1.14, written by Peter Selinger 2001-2017
</metadata>
<g transform="translate(0.000000,1228.000000) scale(0.100000,-0.100000)"
fill="#000000" stroke="none">
<path d="M6086 11957 c-34 -125 -113 -260 -205 -351 l-49 -48 -76 63 c-145
122 -307 206 -495 257 -89 24 -112 26 -301 26 -193 0 -211 -2 -305 -28 -412
-113 -727 -407 -862 -804 l-28 -84 -48 7 c-138 18 -325 108 -436 212 l-67 61
-51 -29 -52 -30 15 -41 c26 -74 37 -209 24 -310 -12 -101 -28 -176 -39 -183
-4 -2 -36 3 -72 12 -47 13 -110 17 -244 17 -155 0 -193 -3 -273 -23 -250 -62
-456 -181 -624 -360 -163 -173 -261 -365 -314 -612 -26 -119 -24 -362 4 -479
11 -47 18 -87 16 -89 -12 -13 -183 -53 -266 -63 -105 -12 -228 -2 -305 25
l-42 14 -31 -49 -30 -50 59 -64 c77 -81 133 -177 177 -298 18 -53 34 -100 34
-104 0 -5 -33 -18 -73 -31 -292 -93 -560 -326 -707 -613 -228 -447 -151 -1013
186 -1378 l57 -61 -79 -80 c-120 -122 -258 -206 -392 -240 l-53 -13 3 -59 3
-60 55 -14 c114 -29 245 -104 354 -204 l57 -51 -49 -52 c-145 -155 -252 -373
-296 -605 -20 -106 -21 -312 -1 -424 77 -443 395 -813 820 -956 104 -35 101
-25 59 -169 -42 -144 -147 -323 -225 -385 l-30 -23 27 -50 c15 -27 28 -50 29
-51 1 -2 39 7 86 18 72 19 102 21 214 16 109 -5 225 -24 241 -40 2 -2 -4 -37
-13 -78 -13 -55 -17 -118 -17 -249 1 -163 3 -183 32 -295 92 -349 329 -641
647 -797 266 -131 537 -160 852 -93 l31 7 26 -80 c37 -118 52 -269 37 -376 -6
-47 -18 -103 -25 -124 l-14 -38 53 -29 53 -28 27 31 c67 80 211 166 355 213
l85 28 26 -78 c131 -387 453 -690 847 -795 139 -37 296 -51 428 -36 283 30
492 121 716 313 46 40 60 47 75 38 38 -19 160 -158 207 -234 46 -73 106 -220
106 -260 0 -16 8 -18 62 -15 l61 3 13 56 c25 112 99 242 203 358 l48 55 79
-66 c178 -148 374 -240 594 -279 106 -19 325 -17 433 4 441 87 797 400 941
829 14 40 29 74 34 76 18 6 143 -28 220 -59 103 -41 182 -90 259 -162 l64 -60
47 26 c52 29 52 27 28 127 -26 110 -20 278 15 406 l11 41 56 -14 c93 -24 370
-29 477 -8 377 70 693 300 874 635 51 96 106 258 127 380 20 119 15 338 -11
453 -10 42 -16 79 -14 81 3 3 45 17 94 32 126 37 334 45 445 16 83 -22 79 -23
115 44 l18 33 -59 64 c-33 36 -74 90 -92 120 -45 75 -100 203 -107 252 l-7 40
71 22 c89 28 210 88 303 151 267 180 462 486 519 812 18 105 16 316 -5 422
-45 235 -167 477 -311 618 l-44 43 40 48 c52 62 171 158 251 202 61 34 153 69
211 82 26 5 27 8 27 64 l0 58 -54 12 c-112 25 -296 133 -385 225 l-34 35 51
56 c159 173 271 425 302 675 27 219 -10 447 -105 657 -136 298 -430 558 -740
654 -41 13 -75 28 -75 34 0 36 48 192 80 262 45 97 87 160 153 230 l48 51 -28
51 c-20 36 -32 49 -43 45 -94 -40 -312 -49 -440 -19 -41 10 -78 19 -81 21 -3
1 3 43 13 91 25 116 26 326 4 445 -95 505 -468 884 -976 994 -118 26 -370 24
-488 -4 -45 -10 -84 -16 -86 -13 -11 20 -47 145 -55 195 -21 118 -11 291 23
401 5 16 -3 25 -45 48 l-52 29 -31 -35 c-45 -51 -131 -114 -208 -153 -85 -43
-218 -88 -228 -77 -4 4 -19 44 -34 88 -69 200 -196 384 -356 519 -99 83 -151
117 -257 170 -171 85 -348 126 -543 126 -308 0 -589 -107 -823 -312 l-67 -60
-79 79 c-119 120 -202 255 -234 383 l-14 55 -60 3 -60 3 -17 -64z"/>
</g>
</svg>
